<svg version="1.1" xmlns="http://www.w3.org/2000/svg" xmlns:xlink="http://www.w3.org/1999/xlink" x="0px" y="0px"
	 width="23px" height="30px" viewBox="0 0 23 30" enable-background="new 0 0 23 30" xml:space="preserve">
	<path fill="#000000" d="M6.729,7.915l2.691,2.447h12.846v12.723H0.734V7.915h5.873 M6.729,7.181H0.856C0.451,7.181,0,7.387,0,7.792
		v15.17c0,0.405,0.451,0.856,0.856,0.856h21.531c0.406,0,0.612-0.451,0.612-0.856V10.239c0-0.405-0.207-0.611-0.612-0.611H9.704
		L7.222,7.372C7.087,7.249,6.911,7.181,6.729,7.181L6.729,7.181z"/>
	<path fill="#000000" stroke="#000000" stroke-width="0.5" stroke-miterlimit="10" d="M15.011,18.002
		c-0.694,0-1.306,0.312-1.661,0.78l-3.49-1.518c0.076-0.183,0.12-0.378,0.12-0.584s-0.043-0.402-0.12-0.587l3.49-1.516
		c0.354,0.469,0.967,0.779,1.661,0.779c1.097,0,1.988-0.775,1.988-1.729s-0.892-1.729-1.988-1.729c-1.098,0-1.991,0.775-1.991,1.729
		c0,0.205,0.046,0.402,0.121,0.585L9.65,15.73c-0.356-0.469-0.968-0.78-1.661-0.78C6.893,14.95,6,15.725,6,16.68
		c0,0.954,0.893,1.73,1.99,1.73c0.694,0,1.304-0.311,1.661-0.781l3.491,1.52c-0.076,0.183-0.12,0.379-0.12,0.584
		c0,0.953,0.893,1.729,1.989,1.729S17,20.687,17,19.732S16.107,18.002,15.011,18.002z M15.011,12.305c0.839,0,1.52,0.593,1.52,1.323
		c0,0.728-0.682,1.322-1.52,1.322s-1.521-0.592-1.521-1.322C13.489,12.898,14.173,12.305,15.011,12.305z M7.989,18.002
		c-0.838,0-1.521-0.592-1.521-1.321s0.682-1.324,1.521-1.324c0.839,0,1.522,0.594,1.522,1.324
		C9.509,17.408,8.828,18.002,7.989,18.002z M15.011,21.055c-0.838,0-1.521-0.593-1.521-1.322s0.684-1.322,1.521-1.322
		s1.52,0.593,1.52,1.322C16.53,20.461,15.85,21.055,15.011,21.055z"/>
</svg>