<svg version="1.1" xmlns="http://www.w3.org/2000/svg" xmlns:xlink="http://www.w3.org/1999/xlink" x="0px" y="0px"
     width="23px" height="30px" viewBox="0 0 23 30" enable-background="new 0 0 23 30" xml:space="preserve">
    <path fill="#000000" d="M21.779,16.728c-0.691-0.707-1.565-1.11-2.467-1.218V8.702c0-0.415-0.33-0.701-0.733-0.701H8.19L6.185,6.159
      C6.049,6.032,5.873,6,5.689,6H0.855C0.451,6,0,6.211,0,6.625V19.5c0,0.416,0.451,0.751,0.855,0.751h13.846
      c0.107,0.913,0.5,1.801,1.188,2.501c1.627,1.664,4.264,1.664,5.893,0C23.407,21.089,23.406,18.393,21.779,16.728z M0.733,19.5V6.75
      h4.889h0.066l2.215,2h10.675v6.741c-0.98,0.062-1.942,0.471-2.691,1.236c-0.754,0.771-1.154,1.765-1.209,2.772H0.733z
       M21.729,20.251h-2.416v2.512c0,0.207-0.164,0.375-0.367,0.375c-0.201,0-0.365-0.168-0.365-0.375v-2.512h-2.54
      c-0.202,0-0.366-0.168-0.366-0.375S15.838,19.5,16.04,19.5h2.54v-2.554c0-0.208,0.164-0.377,0.365-0.377
      c0.203,0,0.367,0.169,0.367,0.377V19.5h2.416c0.201,0,0.367,0.169,0.367,0.376S21.93,20.251,21.729,20.251z"/>
</svg>