<svg version="1.1" xmlns="http://www.w3.org/2000/svg" xmlns:xlink="http://www.w3.org/1999/xlink" x="0px" y="0px"
     width="23px" height="30px" viewBox="0 0 23 30" enable-background="new 0 0 23 30" xml:space="preserve">
    <g>
      <path fill="#000000" d="M6.127,9.371h8.767c0.134,0,0.244-0.093,0.244-0.208s-0.11-0.208-0.244-0.208H6.127
        c-0.134,0-0.244,0.093-0.244,0.208S5.993,9.371,6.127,9.371z"/>
      <path fill="#000000" d="M6.127,12.286h8.767c0.134,0,0.244-0.093,0.244-0.208c0-0.115-0.11-0.208-0.244-0.208H6.127
        c-0.134,0-0.244,0.093-0.244,0.208C5.883,12.192,5.993,12.286,6.127,12.286z"/>
      <path fill="#000000" d="M6.127,14.783h8.767c0.134,0,0.244-0.093,0.244-0.208s-0.11-0.208-0.244-0.208H6.127
        c-0.134,0-0.244,0.093-0.244,0.208S5.993,14.783,6.127,14.783z"/>
      <path fill="#000000" d="M14.894,17.49c0.134,0,0.244-0.094,0.244-0.209s-0.11-0.209-0.244-0.209H6.127
        c-0.134,0-0.244,0.094-0.244,0.209s0.109,0.209,0.244,0.209H14.894z"/>
      <path fill="#000000" d="M20.284,18.943c-0.691-0.59-1.566-0.926-2.468-1.014V7.29c0-0.113-0.071-0.211-0.177-0.266
        c-0.025-0.036-0.058-0.067-0.097-0.092l-2.276-1.846c-0.085-0.068-0.198-0.095-0.309-0.08C14.938,5.002,14.915,5,14.894,5H3.57
        C3.368,5,3.205,5.14,3.205,5.313v1.145H1.865C1.664,6.457,1.5,6.597,1.5,6.77v16.236c0,0.172,0.164,0.313,0.365,0.313h11.958
        c0.165,0.229,0.36,0.445,0.591,0.643c1.622,1.385,4.25,1.385,5.87,0C21.906,22.576,21.904,20.33,20.284,18.943z M3.935,5.625H14.65
        v1.561c0,0.173,0.163,0.313,0.365,0.313h2.07v10.418c-0.973,0.053-1.928,0.393-2.672,1.027c-0.745,0.639-1.143,1.459-1.202,2.293
        H3.935V5.625z M2.23,22.693V7.082h0.974v14.467c0,0.172,0.163,0.313,0.365,0.313h9.659c0.039,0.281,0.117,0.563,0.236,0.832H2.23z
         M20.233,21.861h-2.417v2.107c0,0.172-0.163,0.313-0.365,0.313s-0.365-0.141-0.365-0.313v-2.107h-2.521
        c-0.202,0-0.365-0.141-0.365-0.313c0-0.174,0.163-0.313,0.365-0.313h2.521v-2.111c0-0.172,0.163-0.313,0.365-0.313
        s0.365,0.141,0.365,0.313v2.111h2.417c0.2,0,0.365,0.139,0.365,0.313C20.599,21.721,20.434,21.861,20.233,21.861z"/>
    </g>
    </svg>