<svg version="1.1" xmlns="http://www.w3.org/2000/svg" xmlns:xlink="http://www.w3.org/1999/xlink" x="0px" y="0px"
	 width="23px" height="30px" viewBox="0 0 23 30" enable-background="new 0 0 23 30" xml:space="preserve">
    <path fill="#000000" d="M9.391,6.413c1.87,0,3.498,1.283,4.353,3.178c0.302-0.117,0.619-0.182,0.951-0.182
      c1.423,0,2.625,1.173,3.017,2.784c2.538,0.292,4.524,2.949,4.524,6.182c0,3.432-2.234,6.213-4.989,6.213H5.694
      c-2.756,0-4.992-2.777-4.992-6.213c0-2.876,1.575-5.289,3.707-5.997C4.513,9.063,6.701,6.413,9.391,6.413 M9.391,5.5
      c-2.907,0-5.304,2.671-5.67,6.194c-2.233,1.019-3.751,3.679-3.751,6.683c0,3.928,2.568,7.123,5.724,7.123h11.553
      c3.155,0,5.724-3.195,5.724-7.123c0-3.504-2-6.425-4.726-7.016c-0.616-1.735-1.988-2.865-3.55-2.865
      c-0.203,0-0.406,0.021-0.606,0.06C13.021,6.654,11.27,5.5,9.391,5.5L9.391,5.5z"/>
    <path fill="#000000" d="M9.224,19.27l1.758,2.186c0.132,0.165,0.316,0.27,0.519,0.27c0.202,0,0.384-0.103,0.517-0.267
      c0.001,0,0.001-0.003,0.002-0.003l1.758-2.189c0.285-0.356,0.285-0.934,0-1.291c-0.287-0.354-0.767-0.354-1.052,0l-0.523,0.633
      v-5.419c0-0.504-0.327-0.913-0.733-0.913c-0.406,0-0.734,0.409-0.734,0.913v5.419l-0.492-0.633
      c-0.144-0.178-0.323-0.267-0.513-0.267c-0.187,0-0.371,0.089-0.514,0.267C8.935,18.331,8.938,18.91,9.224,19.27z"/>
</svg>