<?xml version="1.0" encoding="utf-8"?>
<!-- Generator: Adobe Illustrator 15.1.0, SVG Export Plug-In . SVG Version: 6.00 Build 0)  -->
<!DOCTYPE svg PUBLIC "-//W3C//DTD SVG 1.1//EN" "http://www.w3.org/Graphics/SVG/1.1/DTD/svg11.dtd">
<svg version="1.1" id="Your_Icon" xmlns="http://www.w3.org/2000/svg" xmlns:xlink="http://www.w3.org/1999/xlink" x="0px" y="0px"
	 width="100px" height="100px" viewBox="0 0 100 100" enable-background="new 0 0 100 100" xml:space="preserve">
<path stroke="#000000" stroke-width="2" stroke-miterlimit="10" d="M61.169,60.207c-2.205,0-4.152,0.988-5.284,2.481L44.78,57.861
	c0.242-0.582,0.38-1.206,0.38-1.861c0-0.654-0.138-1.279-0.38-1.862l11.104-4.828c1.132,1.493,3.076,2.482,5.284,2.482
	c3.493,0,6.331-2.468,6.331-5.503c0-3.037-2.838-5.506-6.331-5.506c-3.49,0-6.33,2.47-6.33,5.505c0,0.655,0.14,1.279,0.381,1.862
	l-11.104,4.827c-1.133-1.491-3.079-2.48-5.285-2.48c-3.49,0-6.331,2.468-6.331,5.505c0,3.036,2.841,5.504,6.331,5.504
	c2.208,0,4.151-0.988,5.285-2.48l11.104,4.829c-0.241,0.58-0.381,1.206-0.381,1.858c0,3.034,2.84,5.507,6.33,5.507
	c3.493,0,6.331-2.47,6.331-5.507C67.5,62.677,64.662,60.207,61.169,60.207z M61.169,42.079c2.669,0,4.839,1.887,4.839,4.208
	c0,2.32-2.17,4.208-4.839,4.208c-2.668,0-4.838-1.886-4.838-4.208C56.331,43.965,58.501,42.079,61.169,42.079z M38.831,60.207
	c-2.667,0-4.839-1.887-4.839-4.207s2.17-4.21,4.839-4.21S43.67,53.68,43.67,56C43.667,58.316,41.499,60.207,38.831,60.207z
	 M61.169,69.92c-2.668,0-4.838-1.888-4.838-4.209c0-2.32,2.17-4.208,4.838-4.208c2.669,0,4.839,1.888,4.839,4.208
	C66.008,68.032,63.838,69.92,61.169,69.92z"/>
<g>
	<g>
		<path d="M59.191,13.923H22.964v72.154h54.071V31.767L59.191,13.923z M61.891,20.436l8.631,8.634h-8.631V20.436z M74.338,83.379
			H25.662V16.62h33.53v15.146h15.146V83.379L74.338,83.379z"/>
	</g>
</g>
</svg>
