<svg version="1.1" xmlns="http://www.w3.org/2000/svg" xmlns:xlink="http://www.w3.org/1999/xlink" x="0px" y="0px"
     width="23px" height="30px" viewBox="0 0 23 30" enable-background="new 0 0 23 30" xml:space="preserve">
    <g>
      <path fill="#000000" d="M21.284,7.21c-0.031-0.039-0.07-0.074-0.118-0.101l-2.791-2.016c-0.102-0.074-0.242-0.104-0.377-0.088
        C17.972,5.002,17.945,5,17.918,5H4.037C3.79,5,3.589,5.152,3.589,5.341v1.25H1.948C1.7,6.591,1.5,6.743,1.5,6.932v17.728
        C1.5,24.848,1.7,25,1.948,25h16.716c0.247,0,0.448-0.152,0.448-0.341v-1.25h1.939c0.248,0,0.448-0.152,0.448-0.341V7.5
        C21.5,7.377,21.413,7.27,21.284,7.21z M18.217,24.318H2.396V7.273h1.194v15.795c0,0.188,0.201,0.341,0.448,0.341h14.18V24.318z
         M4.485,22.728V5.682h13.134v1.705c0,0.188,0.201,0.341,0.448,0.341h2.537v15H4.485z"/>
      <path fill="#000000" d="M17.918,9.318H7.172c-0.165,0-0.299,0.102-0.299,0.227s0.134,0.228,0.299,0.228h10.746
        c0.165,0,0.299-0.102,0.299-0.228S18.083,9.318,17.918,9.318z"/>
      <path fill="#000000" d="M17.918,12.5H7.172c-0.165,0-0.299,0.102-0.299,0.227c0,0.125,0.134,0.228,0.299,0.228h10.746
        c0.165,0,0.299-0.102,0.299-0.228C18.217,12.602,18.083,12.5,17.918,12.5z"/>
      <path fill="#000000" d="M17.918,15.227H7.172c-0.165,0-0.299,0.102-0.299,0.228s0.134,0.227,0.299,0.227h10.746
        c0.165,0,0.299-0.102,0.299-0.227S18.083,15.227,17.918,15.227z"/>
      <path fill="#000000" d="M17.918,18.182H7.172c-0.165,0-0.299,0.102-0.299,0.228s0.134,0.228,0.299,0.228h10.746
        c0.165,0,0.299-0.102,0.299-0.228S18.083,18.182,17.918,18.182z"/>
    </g>
    </svg>