<svg xmlns="http://www.w3.org/2000/svg" xmlns:xlink="http://www.w3.org/1999/xlink" version="1.1" id="Your_Icon" x="0px" y="0px" width="100px" height="100px" viewBox="0 0 100 100" enable-background="new 0 0 100 100" xml:space="preserve">
<path fill="#FFFFFF" d="M41.492,20.287c7.653,0,14.313,4.217,17.811,10.448c1.229-0.389,2.535-0.601,3.893-0.601c5.82,0,10.735,3.858,12.34,9.155  c10.384,0.961,18.517,9.689,18.517,20.323c0,11.278-9.143,20.42-20.42,20.42H26.368c-11.277,0-20.42-9.142-20.42-20.42  c0-9.457,6.438-17.39,15.165-19.712C21.54,28.999,30.487,20.287,41.492,20.287 M41.492,17.287c-11.893,0-21.701,8.784-23.197,20.36  C9.16,40.997,2.948,49.744,2.948,59.611c0,12.914,10.506,23.42,23.42,23.42h47.264c12.914,0,23.42-10.506,23.42-23.42  c0-11.522-8.187-21.12-19.337-23.058c-2.525-5.707-8.137-9.42-14.52-9.42c-0.837,0-1.669,0.065-2.491,0.196  C56.35,21.083,49.18,17.287,41.492,17.287L41.492,17.287z"/>
<path fill="#FFFFFF" d="M40.819,62.283l7.19,7.191c0.543,0.545,1.294,0.883,2.124,0.883c0.827,0,1.576-0.336,2.118-0.877  c0.001,0,0.002-0.002,0.003-0.002l7.193-7.195c1.172-1.171,1.172-3.07,0-4.241c-1.172-1.173-3.133-1.173-4.305,0l-2.135,2.072V42.3  c0-1.656-1.343-3-3-3s-3,1.344-3,3v17.814l-2.012-2.072c-0.584-0.587-1.321-0.88-2.09-0.88c-0.768,0-1.52,0.293-2.104,0.88  C39.631,59.213,39.647,61.112,40.819,62.283z"/>
</svg>