<svg version="1.1" xmlns="http://www.w3.org/2000/svg" xmlns:xlink="http://www.w3.org/1999/xlink" x="0px" y="0px"
     width="23px" height="30px" viewBox="0 0 23 30" enable-background="new 0 0 23 30" xml:space="preserve">
    <g>
      <path fill="#000000" d="M17.132,7.882v2.783H5.867V7.882H1.5V25h20V7.882H17.132z M20.663,24.303H2.337V8.579H5.03v2.783h12.938
        V8.579h2.695V24.303z"/>
      <path fill="#000000" d="M15.988,5.995h-2.74V5H9.767v0.995H7.013v3.776h8.976V5.995L15.988,5.995z M10.604,5.697h1.809v1.506
        h-1.809V5.697z M15.15,9.074H7.849V6.691h1.917V7.9h3.481V6.691h1.902V9.074L15.15,9.074z"/>
      <rect x="4.147" y="12.797" fill="#000000" width="14.706" height="0.252"/>
      <rect x="4.147" y="14.946" fill="#000000" width="14.706" height="0.252"/>
      <rect x="4.147" y="17.095" fill="#000000" width="14.706" height="0.253"/>
      <rect x="4.147" y="19.244" fill="#000000" width="14.706" height="0.252"/>
      <rect x="4.147" y="21.394" fill="#000000" width="14.706" height="0.252"/>
    </g>
    <g>
      <path fill="#000000" d="M17.132,7.882v2.783H5.867V7.882H1.5V25h20V7.882H17.132z M20.663,24.303H2.337V8.579H5.03v2.783h12.938
        V8.579h2.695V24.303z"/>
      <path fill="#000000" d="M15.988,5.995h-2.74V5H9.767v0.995H7.013v3.776h8.976V5.995L15.988,5.995z M10.604,5.697h1.809v1.506
        h-1.809V5.697z M15.15,9.074H7.849V6.691h1.917V7.9h3.481V6.691h1.902V9.074L15.15,9.074z"/>
      <rect x="4.147" y="12.797" fill="#000000" width="14.706" height="0.252"/>
      <rect x="4.147" y="14.946" fill="#000000" width="14.706" height="0.252"/>
      <rect x="4.147" y="17.095" fill="#000000" width="14.706" height="0.253"/>
      <rect x="4.147" y="19.244" fill="#000000" width="14.706" height="0.252"/>
      <rect x="4.147" y="21.394" fill="#000000" width="14.706" height="0.252"/>
    </g>
</svg>