<svg version="1.1" xmlns="http://www.w3.org/2000/svg" xmlns:xlink="http://www.w3.org/1999/xlink" x="0px" y="0px"
  width="23px" height="30px" viewBox="0 0 23 30" enable-background="new 0 0 23 30" xml:space="preserve">
    <path fill="#000000" d="M2.572,18.969l-2.552,5.553c-0.06,0.135-0.022,0.279,0.096,0.379c0,0,0.002,0.002,0.003,0.002
    c0.117,0.097,0.291,0.125,0.443,0.07l6.519-2.256c0.074-0.016,0.141-0.05,0.194-0.097L22.878,8.874
    c0.095-0.084,0.136-0.204,0.104-0.317L22.52,6.735c-0.018-0.068-0.062-0.131-0.119-0.179l-1.387-1.132
    c-0.061-0.048-0.137-0.081-0.217-0.093l-2.169-0.326c-0.133-0.02-0.272,0.019-0.37,0.103L2.73,18.803
    C2.661,18.841,2.604,18.896,2.572,18.969z M21.563,6.898l-15,13.218L5.64,19.364L20.67,6.12l0.928,0.754
    C21.585,6.881,21.574,6.889,21.563,6.898z M4.924,19.756l1.207,0.981l0.368,1.424l-3.347,1.157c-0.127-0.207-0.333-0.416-0.53-0.575
    l0,0c-0.196-0.161-0.452-0.327-0.701-0.427l1.295-2.817L4.924,19.756z M7.217,21.661l-0.281-1.086L21.852,7.432l0.278,1.09
    L7.217,21.661z M19.998,5.923L5.084,19.065l-1.286-0.193L18.703,5.73L19.998,5.923z"/>
</svg>