<svg version="1.1" xmlns="http://www.w3.org/2000/svg" xmlns:xlink="http://www.w3.org/1999/xlink" x="0px" y="0px"
	 width="80px" height="80px" viewBox="0 0 80 80" enable-background="new 0 0 80 80" xml:space="preserve">
	<path fill="#3FA9F5" d="M67.084,2.155c-6.032-3.403-13.64-1.717-17.617,3.693c-1.578-0.21-3.173-0.317-4.775-0.317
		c-12.957,0-24.303,6.854-30.453,17.043c2.886,0.139,5.588,0.95,7.958,2.269c4.947-6.962,13.184-11.53,22.496-11.53
		c0.749,0,1.496,0.033,2.24,0.093c-0.039,4.576,2.372,9.042,6.715,11.493c6.428,3.626,14.645,1.474,18.354-4.807
		C75.711,13.813,73.51,5.781,67.084,2.155z"/>
	<path fill="#3FA9F5" d="M-0.094,40.06c0,6.807,5.297,12.402,12.083,13.065c0.604,1.439,1.305,2.844,2.106,4.2
		c6.477,10.966,18.225,17.144,30.329,17.254c-1.319-2.514-1.954-5.206-1.97-7.872c-8.642-0.704-16.81-5.393-21.464-13.273
		c-0.375-0.634-0.719-1.283-1.039-1.943c4.075-2.254,6.827-6.526,6.827-11.431c0-7.251-6.017-13.131-13.437-13.131
		C5.921,26.93-0.094,32.809-0.094,40.06z"/>
	<path fill="#3FA9F5" d="M67.074,77.956c6.031-3.402,8.34-10.685,5.535-16.758c0.975-1.231,1.866-2.527,2.668-3.883
		c6.479-10.966,6.081-23.997,0.126-34.297c-1.569,2.374-3.637,4.257-5.99,5.602c3.696,7.667,3.624,16.924-1.031,24.804
		c-0.373,0.636-0.777,1.251-1.202,1.85c-4.036-2.32-9.197-2.511-13.542-0.062c-6.427,3.627-8.628,11.659-4.918,17.938
		C52.431,79.43,60.647,81.583,67.074,77.956z"/>
</svg>