<svg version="1.1" xmlns="http://www.w3.org/2000/svg" xmlns:xlink="http://www.w3.org/1999/xlink" x="0px" y="0px"
         width="23px" height="30px" viewBox="0 0 23 30" enable-background="new 0 0 23 30" xml:space="preserve">
        <path fill="#000000" d="M6.729,7.293L9.421,9.94h12.845v13.765H0.734V7.293h5.873 M6.729,6.5H0.856C0.451,6.5,0,6.723,0,7.161
        v16.413C0,24.012,0.451,24.5,0.856,24.5h21.533c0.404,0,0.61-0.488,0.61-0.927V9.808c0-0.438-0.206-0.662-0.61-0.662H9.704
        L7.223,6.707C7.087,6.574,6.911,6.5,6.729,6.5L6.729,6.5z"/>
        <path fill="#000000" d="M3.487,14.508l-1.895,1.769c-0.144,0.134-0.231,0.318-0.23,0.521s0.091,0.385,0.234,0.518l0,0l1.914,1.751
        c0.313,0.285,0.813,0.283,1.124-0.005c0.309-0.289,0.307-0.739-0.005-1.024l-0.551-0.489l4.717-0.022
        c0.438-0.002,0.791-0.333,0.789-0.737c-0.002-0.405-0.359-0.733-0.797-0.731L4.07,16.079l0.546-0.524
        c0.155-0.145,0.23-0.34,0.229-0.526c-0.001-0.188-0.078-0.378-0.234-0.52C4.3,14.222,3.796,14.221,3.487,14.508z"/>
      </svg>