<svg version="1.1" xmlns="http://www.w3.org/2000/svg" xmlns:xlink="http://www.w3.org/1999/xlink" x="0px" y="0px"
     width="23px" height="30px" viewBox="0 0 23 30" enable-background="new 0 0 23 30" xml:space="preserve">
    <path fill="#000000" d="M18.84,17.765c-1.449,0-2.729,0.649-3.473,1.631L8.07,16.223C8.229,15.841,8.32,15.43,8.32,15
      c0-0.431-0.091-0.841-0.25-1.224l7.297-3.172c0.744,0.981,2.021,1.631,3.473,1.631c2.295,0,4.16-1.622,4.16-3.617S21.135,5,18.84,5
      c-2.294,0-4.16,1.623-4.16,3.617c0,0.431,0.092,0.841,0.25,1.224l-7.297,3.172c-0.745-0.98-2.023-1.63-3.473-1.63
      C1.866,11.383,0,13.005,0,15s1.867,3.617,4.16,3.617c1.451,0,2.728-0.649,3.473-1.63l7.297,3.173
      c-0.158,0.381-0.25,0.793-0.25,1.222c0,1.994,1.866,3.618,4.16,3.618c2.295,0,4.16-1.623,4.16-3.618S21.135,17.765,18.84,17.765z
       M18.84,5.852c1.754,0,3.18,1.24,3.18,2.765c0,1.525-1.426,2.766-3.18,2.766s-3.18-1.24-3.18-2.766
      C15.66,7.092,17.086,5.852,18.84,5.852z M4.16,17.765c-1.753,0-3.18-1.241-3.18-2.765c0-1.525,1.426-2.766,3.18-2.766
      S7.34,13.475,7.34,15C7.339,16.523,5.913,17.765,4.16,17.765z M18.84,24.147c-1.754,0-3.18-1.24-3.18-2.765
      c0-1.525,1.426-2.766,3.18-2.766s3.18,1.24,3.18,2.766C22.02,22.907,20.594,24.147,18.84,24.147z"/>
    </svg>