<svg version="1.1" xmlns="http://www.w3.org/2000/svg" xmlns:xlink="http://www.w3.org/1999/xlink" x="0px" y="0px"
	 width="23px" height="30px" viewBox="0 0 23 30" enable-background="new 0 0 23 30" xml:space="preserve">
<path fill="#000000" stroke="#000000" stroke-width="0.7" stroke-miterlimit="10" d="M14.596,17.984
	c-0.61,0-1.151,0.273-1.465,0.688l-3.078-1.339c0.067-0.16,0.105-0.334,0.105-0.515c0-0.182-0.038-0.355-0.105-0.517l3.078-1.338
	c0.313,0.414,0.854,0.688,1.465,0.688c0.969,0,1.755-0.684,1.755-1.526S15.564,12.6,14.596,12.6c-0.968,0-1.755,0.685-1.755,1.525
	c0,0.182,0.038,0.354,0.105,0.516L9.869,15.98c-0.314-0.413-0.854-0.687-1.465-0.687c-0.967,0-1.754,0.684-1.754,1.525
	s0.787,1.526,1.754,1.526c0.612,0,1.151-0.274,1.465-0.688l3.078,1.339c-0.067,0.161-0.105,0.334-0.105,0.515
	c0,0.842,0.787,1.527,1.755,1.527c0.969,0,1.755-0.684,1.755-1.527C16.351,18.67,15.564,17.984,14.596,17.984z M14.596,12.959
	c0.74,0,1.342,0.522,1.342,1.166c0,0.643-0.602,1.167-1.342,1.167c-0.739,0-1.342-0.523-1.342-1.167
	C13.254,13.481,13.856,12.959,14.596,12.959z M8.404,17.984c-0.739,0-1.341-0.523-1.341-1.166s0.602-1.167,1.341-1.167
	c0.74,0,1.341,0.524,1.341,1.167C9.745,17.459,9.144,17.984,8.404,17.984z M14.596,20.677c-0.739,0-1.342-0.524-1.342-1.167
	s0.603-1.166,1.342-1.166c0.74,0,1.342,0.523,1.342,1.166S15.336,20.677,14.596,20.677z"/>
<g>
	<g>
		<path fill="#000000" d="M14.048,5H4.006v20h14.989V9.946L14.048,5z M14.796,6.805l2.393,2.394h-2.393V6.805z M18.247,24.253H4.754
			V5.747h9.293v4.199h4.199V24.253L18.247,24.253z"/>
	</g>
</g>
</svg>