<?xml version="1.0" encoding="utf-8"?>
<!-- Generator: Adobe Illustrator 15.1.0, SVG Export Plug-In . SVG Version: 6.00 Build 0)  -->
<!DOCTYPE svg PUBLIC "-//W3C//DTD SVG 1.1//EN" "http://www.w3.org/Graphics/SVG/1.1/DTD/svg11.dtd">
<svg version="1.1" id="Your_Icon" xmlns="http://www.w3.org/2000/svg" xmlns:xlink="http://www.w3.org/1999/xlink" x="0px" y="0px"
	 width="100px" height="100px" viewBox="0 0 100 100" enable-background="new 0 0 100 100" xml:space="preserve">
<path d="M29.281,17.063l11.688,10.625H96.75v55.25H3.25V17.063h25.5 M29.281,13.875h-25.5c-1.761,0-3.719,0.896-3.719,2.656v65.875
	c0,1.762,1.958,3.719,3.719,3.719h93.5c1.761,0,2.656-1.957,2.656-3.719v-55.25c0-1.761-0.896-2.656-2.656-2.656h-55.08
	l-10.776-9.796C30.839,14.17,30.074,13.875,29.281,13.875L29.281,13.875z"/>
<path stroke="#000000" stroke-width="2" stroke-miterlimit="10" d="M64.68,60.655c-2.898,0-5.458,1.298-6.945,3.26L43.14,57.571
	c0.318-0.766,0.5-1.585,0.5-2.446c0-0.86-0.182-1.681-0.5-2.447l14.594-6.345c1.487,1.962,4.043,3.261,6.945,3.261
	c4.591,0,8.32-3.244,8.32-7.233c0-3.99-3.729-7.236-8.32-7.236c-4.588,0-8.319,3.246-8.319,7.234c0,0.861,0.183,1.682,0.5,2.447
	L42.266,51.15c-1.489-1.959-4.045-3.26-6.945-3.26c-4.587,0-8.32,3.243-8.32,7.234c0,3.99,3.734,7.233,8.32,7.233
	c2.901,0,5.456-1.298,6.945-3.26l14.595,6.347c-0.317,0.763-0.5,1.585-0.5,2.443c0,3.986,3.731,7.236,8.319,7.236
	c4.591,0,8.32-3.245,8.32-7.236C73,63.9,69.271,60.655,64.68,60.655z M64.68,36.829c3.507,0,6.359,2.479,6.359,5.53
	c0,3.049-2.853,5.531-6.359,5.531s-6.359-2.479-6.359-5.531C58.32,39.309,61.173,36.829,64.68,36.829z M35.32,60.655
	c-3.506,0-6.36-2.481-6.36-5.53s2.853-5.533,6.36-5.533s6.36,2.484,6.36,5.533C41.677,58.17,38.827,60.655,35.32,60.655z
	 M64.68,73.42c-3.507,0-6.359-2.481-6.359-5.531c0-3.051,2.853-5.531,6.359-5.531s6.359,2.48,6.359,5.531
	C71.039,70.938,68.187,73.42,64.68,73.42z"/>
</svg>
