<svg version="1.1" xmlns="http://www.w3.org/2000/svg" xmlns:xlink="http://www.w3.org/1999/xlink" x="0px" y="0px"
  width="23px" height="30px" viewBox="0 0 23 30" enable-background="new 0 0 23 30" xml:space="preserve">
  <path fill="#020304" d="M22.317,13.386l-5.325,9.502l-0.005,0.007c-0.701,1.243-1.827,2.08-3.08,2.425
  c-1.488,0.411-3.076,0.105-4.312-0.826l0.553-0.983c0.981,0.788,2.264,1.054,3.475,0.719c0.975-0.269,1.85-0.911,2.396-1.862
  c0.015-0.03,0.029-0.059,0.051-0.088l5.313-9.473c0.004-0.01,0.012-0.022,0.018-0.032c0.547-0.975,0.654-2.093,0.392-3.11
  c-0.261-1.002-0.884-1.903-1.808-2.467c-0.024-0.013-0.049-0.025-0.072-0.042C18.972,6.607,17.896,6.5,16.919,6.77
  c-0.986,0.273-1.871,0.929-2.419,1.906l-5.354,9.549c-0.61,1.087-0.692,2.407-0.244,3.57l-0.657,1.171
  c-0.943-1.623-0.971-3.659-0.047-5.307l5.356-9.549c0.697-1.246,1.826-2.084,3.083-2.431c1.243-0.343,2.613-0.205,3.813,0.495
  c0.03,0.015,0.06,0.032,0.085,0.052c1.186,0.722,1.984,1.873,2.314,3.147c0.334,1.28,0.198,2.691-0.479,3.928
  C22.354,13.332,22.338,13.359,22.317,13.386z"/>
  <path fill="#020304" d="M14.826,13.385l-5.329,9.502v0.001v0.001c-1.389,2.477-4.482,3.34-6.895,1.938
  c-0.028-0.014-0.055-0.03-0.08-0.048c-2.39-1.45-3.209-4.645-1.819-7.121L6.056,8.11c0.006-0.011,0.013-0.022,0.02-0.033
  c0.701-1.228,1.821-2.055,3.065-2.399c1.487-0.41,3.076-0.105,4.313,0.827L12.902,7.49c-0.981-0.788-2.27-1.055-3.479-0.721
  C8.446,7.041,7.567,7.687,7.021,8.646c-0.005,0.011-0.01,0.02-0.016,0.029L1.65,18.225c-1.094,1.951-0.439,4.474,1.458,5.601
  l0.001,0.001c1.896,1.127,4.345,0.451,5.439-1.502l0.002,0.002l5.335-9.519c0.007-0.011,0.013-0.021,0.017-0.033
  c0.611-1.087,0.695-2.406,0.246-3.567l0.658-1.174c0.934,1.61,0.969,3.626,0.066,5.266C14.859,13.331,14.844,13.358,14.826,13.385z"
  />
</svg>