<?xml version="1.0" encoding="utf-8"?>
<!-- Generator: Adobe Illustrator 15.1.0, SVG Export Plug-In . SVG Version: 6.00 Build 0)  -->
<!DOCTYPE svg PUBLIC "-//W3C//DTD SVG 1.1//EN" "http://www.w3.org/Graphics/SVG/1.1/DTD/svg11.dtd">
<svg version="1.1" id="Calque_1" xmlns="http://www.w3.org/2000/svg" xmlns:xlink="http://www.w3.org/1999/xlink" x="0px" y="0px"
	 width="100px" height="100px" viewBox="0 0 100 100" enable-background="new 0 0 100 100" xml:space="preserve">
<g>
	<path fill="#FFFFFF" d="M76.545,24.426c0,0-1.534,1.695-6.781,0.808l-19.777-3.629c0,0-2.588-0.148-5.091,0.982l-10.98,3.839
		c0,0-5.886,4.581-10.891,9.908c0,0-1.691,3.428,4.686,3.025c0,0,7.345-1.938,9.847-5.166c0,0,7.059-2.775,9.04-2.099l27.203,18.242
		c0,0,4.925,4.843,5.326,6.619c0,0,4.842-4.359,6.617-6.296l4.602-2.26C90.347,48.398,82.438,26.04,76.545,24.426z"/>
	<path fill="#FFFFFF" d="M14.96,58.672c0,0-2.018,5.086,0.888,6.619c0,0,2.018,1.453,4.681-0.16l0.969-1.695
		C21.5,63.436,16.333,58.914,14.96,58.672z"/>
	<path fill="#FFFFFF" d="M27.14,69.807l1.645-3.867c0,0,0.643-3.186-2.503-4.092c0,0-2.717-0.912-3.146,0.527l-2.076,3.414
		c0,0-0.5,2.35,0.072,3.107c0,0,1.216,2.047,2.502,2.273C23.634,71.172,25.852,71.701,27.14,69.807z"/>
	<path fill="#FFFFFF" d="M34.203,73.172l1.654-3.938c0,0,0.647-3.244-2.517-4.17c0,0-2.733-0.928-3.164,0.539l-2.086,3.475
		c0,0-0.503,2.396,0.071,3.166c0,0,1.223,2.084,2.517,2.318C30.678,74.563,32.908,75.102,34.203,73.172z"/>
	<path fill="#FFFFFF" d="M44.393,77.83c0,0-3.479-2.588-3.787-3.104c0,0-1.856-3.105-4.098-2.145c0,0-3.247,1.109-1.933,3.771
		l3.093,2.66C37.667,79.016,39.522,79.9,44.393,77.83z"/>
</g>
<path fill="#FFFFFF" d="M19.936,29.276c0,0,3.187,1.243,4.197,1.165l3.471,0.288c0,0-2.517,2.43-2.905,2.664L21.63,36.46
	c0,0-0.58,3.508,3.306,4.129c0,0,4.663,0.466,12.046-4.974c0,0,4.472-1.897,6.527-2.254l2.637,0.231L72.81,51.391
	c0,0,4.896,4.43,5.128,6.684c0,0,1.318,3.73-1.787,6.139c0,0-1.322,2.021-5.206-0.23l-12.28-8.549c0,0,8.783,6.451,9.248,10.182
	c0,0,0.698,1.553-0.933,4.662c0,0-1.476,2.717-5.675,1.787l-8.391-7.461l-0.609,0.209c0,0,7.777,7.732,7.855,8.123
	c0,0,1.848,4.256-5.381,3.635l-7.385-5.674l-2.875-1.242l-0.388,0.234c0,0,3.678,2.072,8.263,6.348c0,0-0.18,2.744-5.543,2.123
	l-5.906-4.197c0,0-0.962-3.541-4.382-3.076c0,0,2.355-4.834-1.453-6.699c0,0-2.792-1.338-4.967-0.018c0,0-0.155-3.809-3.73-4.195
	c0,0-3.264-0.777-4.042,2.254l-8.893-6.598C13.479,55.83,18.848,27.955,19.936,29.276z"/>
<path fill="#FFFFFF" d="M18.205,27.943c0,0-6.58,23.42-6.337,27.942L0,53.813l8.878-28.931L18.205,27.943z"/>
<path fill="#FFFFFF" d="M77.56,23.583c0,0,4.924,2.018,9.446,12.43c0,0,4.924,12.188,4.924,13.48l8.07-2.422
	c0,0-7.022-21.067-13.965-27.282L77.56,23.583z"/>
</svg>
