<svg version="1.1" id="Calque_1" xmlns="http://www.w3.org/2000/svg" xmlns:xlink="http://www.w3.org/1999/xlink" x="0px" y="0px"
	 width="80px" height="80px" viewBox="0 0 80 80" enable-background="new 0 0 80 80" xml:space="preserve">
<polygon fill="#3FA9F5" points="72.193,23.02 67.846,22.998 67.419,27.505 68.893,27.513 68.893,41.644 66.077,41.644 
	65.651,46.154 72.193,46.154 "/>
<polygon fill="#3FA9F5" points="13.878,42.922 13.878,22.258 25.041,22.258 24.894,28.351 35.361,28.409 35.758,23.832 
	28.074,23.79 28.221,17.679 10.81,17.679 10.81,47.5 33.701,47.5 34.1,42.922 "/>
<polygon fill="#3FA9F5" points="62.201,51.69 38.37,47.432 38.421,46.893 35.421,46.893 35.039,50.966 64.768,56.282 65.651,46.893 
	62.654,46.893 "/>
<polygon fill="#3FA9F5" points="67.242,77.873 12.459,77.873 2.56,41.743 77.143,41.743 "/>
<path fill="#3FA9F5" d="M68.409,80H11.292L0.226,41.744h79.25L68.409,80z M13.626,75.971h52.451l8.731-30.194H4.892L13.626,75.971z"
	/>
<path fill="#3FA9F5" d="M65.084,51.575L29.94,46.704L35.605,0L70.75,4.87L65.084,51.575z M33.879,43.466l28.174,3.902l4.762-39.256
	L38.639,4.208L33.879,43.466z"/>
<path fill="#3FA9F5" d="M39.194,21.234c-0.054,0.464,0.251,0.889,0.692,0.95c0.435,0.061,0.838-0.267,0.892-0.73
	c0.062-0.464-0.251-0.892-0.688-0.954C39.651,20.438,39.252,20.769,39.194,21.234z"/>
<path fill="#3FA9F5" d="M45.069,22.051c-0.056,0.464-0.458,0.792-0.897,0.731s-0.75-0.486-0.693-0.951s0.457-0.792,0.896-0.731
	C44.814,21.162,45.125,21.587,45.069,22.051z"/>
<path fill="#3FA9F5" d="M47.766,22.419c-0.055,0.465,0.25,0.892,0.693,0.954c0.434,0.061,0.838-0.268,0.896-0.733
	c0.057-0.464-0.257-0.89-0.688-0.952C48.223,21.628,47.822,21.956,47.766,22.419z"/>
<path fill="#3FA9F5" d="M52.055,23.015c-0.059,0.463,0.252,0.891,0.691,0.954c0.436,0.058,0.84-0.27,0.893-0.734
	c0.059-0.464-0.25-0.892-0.688-0.951C52.512,22.222,52.108,22.551,52.055,23.015z"/>
<path fill="#3FA9F5" d="M56.342,23.609c-0.058,0.465,0.254,0.892,0.688,0.95c0.442,0.062,0.842-0.268,0.899-0.731
	c0.053-0.463-0.256-0.891-0.693-0.952S56.398,23.145,56.342,23.609z"/>
<path fill="#3FA9F5" d="M60.627,24.202c-0.054,0.466,0.252,0.892,0.693,0.952c0.438,0.061,0.838-0.267,0.891-0.73
	c0.063-0.468-0.25-0.892-0.688-0.954C61.084,23.41,60.688,23.739,60.627,24.202z"/>
<path fill="#3FA9F5" d="M38.531,26.709c-0.059,0.467,0.251,0.892,0.689,0.953c0.438,0.063,0.842-0.267,0.896-0.733
	c0.058-0.465-0.252-0.89-0.692-0.951C38.988,25.917,38.584,26.245,38.531,26.709z"/>
<path fill="#3FA9F5" d="M42.813,27.304c-0.054,0.468,0.255,0.891,0.692,0.954c0.44,0.059,0.838-0.267,0.897-0.733
	c0.056-0.465-0.251-0.892-0.692-0.951C43.274,26.512,42.875,26.84,42.813,27.304z"/>
<path fill="#3FA9F5" d="M47.103,27.898c-0.058,0.467,0.252,0.889,0.692,0.951c0.436,0.062,0.838-0.265,0.896-0.731
	c0.057-0.464-0.257-0.892-0.688-0.953C47.559,27.105,47.156,27.434,47.103,27.898z"/>
<path fill="#3FA9F5" d="M51.393,28.493c-0.063,0.466,0.25,0.89,0.688,0.95s0.84-0.265,0.896-0.731
	c0.054-0.465-0.252-0.891-0.693-0.954C51.85,27.699,51.445,28.028,51.393,28.493z"/>
<path fill="#3FA9F5" d="M55.674,29.085c-0.053,0.466,0.256,0.891,0.693,0.953s0.839-0.265,0.898-0.734
	c0.055-0.463-0.258-0.89-0.692-0.951C56.131,28.293,55.735,28.622,55.674,29.085z"/>
<path fill="#3FA9F5" d="M59.965,29.679c-0.059,0.466,0.25,0.891,0.688,0.954c0.438,0.063,0.838-0.268,0.896-0.733
	c0.059-0.464-0.252-0.892-0.691-0.952C60.422,28.888,60.021,29.216,59.965,29.679z"/>
<path fill="#3FA9F5" d="M39.856,15.76c-0.054,0.466,0.252,0.891,0.692,0.953c0.438,0.061,0.84-0.268,0.896-0.733
	c0.06-0.464-0.255-0.891-0.688-0.952C40.314,14.968,39.914,15.296,39.856,15.76z"/>
<path fill="#3FA9F5" d="M44.146,16.355c-0.061,0.466,0.251,0.892,0.693,0.954c0.435,0.059,0.834-0.267,0.892-0.733
	c0.053-0.464-0.252-0.891-0.688-0.951C44.604,15.563,44.2,15.891,44.146,16.355z"/>
<path fill="#3FA9F5" d="M48.428,16.95c-0.053,0.465,0.256,0.89,0.692,0.951c0.438,0.061,0.839-0.265,0.897-0.731
	c0.055-0.463-0.26-0.892-0.692-0.952C48.885,16.156,48.485,16.486,48.428,16.95z"/>
<path fill="#3FA9F5" d="M52.717,17.544c-0.057,0.466,0.252,0.891,0.693,0.952c0.436,0.061,0.838-0.265,0.893-0.731
	c0.062-0.464-0.252-0.891-0.688-0.952C53.176,16.751,52.775,17.08,52.717,17.544z"/>
<path fill="#3FA9F5" d="M61.289,18.731c-0.053,0.466,0.252,0.891,0.693,0.953c0.438,0.061,0.839-0.267,0.893-0.733
	c0.063-0.465-0.248-0.892-0.687-0.951C61.747,17.939,61.35,18.267,61.289,18.731z"/>
<path fill="#3FA9F5" d="M40.52,10.29c-0.053,0.466,0.256,0.891,0.693,0.952c0.437,0.061,0.838-0.265,0.896-0.731
	c0.058-0.461-0.255-0.891-0.688-0.953C40.977,9.496,40.577,9.828,40.52,10.29z"/>
<path fill="#3FA9F5" d="M44.809,10.882c-0.063,0.468,0.252,0.892,0.693,0.954c0.435,0.061,0.834-0.265,0.893-0.733
	c0.057-0.461-0.252-0.889-0.69-0.95C45.266,10.09,44.862,10.42,44.809,10.882z"/>
<path fill="#3FA9F5" d="M49.092,11.478c-0.054,0.466,0.256,0.892,0.692,0.954c0.438,0.061,0.843-0.268,0.899-0.733
	c0.054-0.462-0.256-0.889-0.693-0.95C49.549,10.685,49.152,11.015,49.092,11.478z"/>
<path fill="#3FA9F5" d="M53.381,12.071c-0.054,0.466,0.252,0.892,0.693,0.954c0.436,0.059,0.838-0.267,0.896-0.733
	c0.057-0.461-0.256-0.891-0.689-0.95C53.838,11.28,53.438,11.61,53.381,12.071z"/>
<path fill="#3FA9F5" d="M61.956,13.26c-0.057,0.467,0.253,0.891,0.689,0.951c0.442,0.061,0.838-0.265,0.896-0.731
	c0.057-0.465-0.252-0.891-0.688-0.954C62.409,12.466,62.014,12.798,61.956,13.26z"/>
<path fill="#3FA9F5" d="M57.487,22.123c-3.367-0.466-5.752-3.774-5.313-7.376c0.438-3.598,3.531-6.143,6.898-5.677
	c3.368,0.466,5.749,3.771,5.311,7.371C63.948,20.04,60.855,22.589,57.487,22.123z M58.623,12.796
	c-1.447-0.201-2.777,0.89-2.964,2.435c-0.19,1.547,0.834,2.966,2.281,3.167c1.444,0.2,2.771-0.894,2.961-2.443
	C61.084,14.413,60.063,12.996,58.623,12.796z"/>
<polygon fill="#3FA9F5" points="57.381,45.205 36.227,42.273 44.321,23.708 47.407,38.769 52.527,32.559 "/>
</svg>
