<svg xmlns="http://www.w3.org/2000/svg" xmlns:xlink="http://www.w3.org/1999/xlink" version="1.1" id="Your_Icon" x="0px" y="0px" width="100px" height="100px" viewBox="0 0 100 100" enable-background="new 0 0 100 100" xml:space="preserve">
<g transform="translate(0.000000,2000.000000) scale(0.100000,-0.100000)">
	<path fill="#FFFFFF" d="M356.924,19999.627c-26.738-3.477-49.59-23.662-56.396-49.893c-1.748-6.709-2.305-12.598-2.305-23.408   v-9.629H171.787c-141.943,0-128.984,0.361-133.799-3.945c-3.633-3.281-4.717-5.635-5.02-10.703   c-0.205-3.691-0.049-4.561,1.025-6.973c1.738-3.838,4.043-6.25,7.48-7.939l2.92-1.436l30.322-0.156l30.322-0.146l0.264-1.641   c0.146-0.928,0.869-12.812,1.582-26.484c0.723-13.682,2.363-43.027,3.643-65.312c3.125-56.348,6.045-108.086,8.145-145.742   c0.967-17.617,2.256-40.059,2.812-49.941c0.566-9.834,2.051-36.377,3.33-58.916c3.281-59.062,6.611-118.027,8.965-160.078   c1.133-20.137,3.232-57.119,4.609-82.217c1.436-25.049,3.027-53.633,3.594-63.525c0.557-9.834,2.607-46.875,4.609-82.217   c4.707-84.16,4.961-88.057,6.094-93.232c3.379-15.107,11.426-28.682,22.842-38.574c9.893-8.555,20.391-13.73,33.604-16.592   c4.102-0.879,16.445-0.928,288.867-0.928h284.57l5.322,1.182c31.348,7.012,54.092,32.783,56.66,64.131   c0.146,2.1,1.787,30.586,3.584,63.271c1.797,32.676,3.535,63.467,3.838,68.379c0.312,4.922,1.689,29.609,3.076,54.814   c2.871,51.689,4.922,88.115,7.168,127.812c1.494,26.23,4.15,74.023,14.6,259.717c2.666,47.9,5.586,99.326,6.406,114.238   c4.922,87.031,7.178,127.803,7.178,129.697v2.158l33.955,0.146c33.506,0.156,33.965,0.156,36.318,1.289   c5.996,2.764,9.326,7.939,9.326,14.492c0,6.201-2.969,11.064-8.301,13.682l-2.92,1.436l-127.041,0.254l-127.041,0.254   l-0.303,12.549c-0.205,9.072-0.518,13.682-1.182,16.543c-2.969,13.584-8.965,24.443-18.691,34.229   c-7.891,7.881-16.035,12.959-26.279,16.387c-10.459,3.535,3.115,3.232-154.863,3.33   C422.344,20000.037,358.926,19999.891,356.924,19999.627z M643.896,19968.123c7.627-1.582,13.672-4.863,19.053-10.449   c4.053-4.15,6.768-8.604,8.555-14.082c1.279-3.848,1.387-4.873,1.592-15.469l0.205-11.426H501.328H329.365l0.205,11.162   c0.303,12.354,0.82,14.961,4.307,21.67c5.117,9.736,15.205,17.061,26.221,18.906c1.338,0.205,64.854,0.41,141.133,0.459   C626.221,19968.943,640.312,19968.846,643.896,19968.123z M859.15,19883.963c0-0.771-1.025-19.727-2.305-42.109   c-2.256-40.723-5.127-91.748-8.965-160.029c-2.773-49.482-5.381-95.898-6.914-122.949c-0.723-12.393-2.207-39.131-3.33-59.414   c-1.133-20.293-2.871-51.074-3.848-68.389s-3.076-54.199-4.609-81.963s-3.281-58.506-3.838-68.389   c-1.182-20.957-4.463-79.609-8.457-150.859c-3.486-62.246-3.633-64.961-4.658-68.799c-3.896-15.059-17.373-27.207-32.734-29.561   c-2.51-0.361-87.344-0.508-283.799-0.41c-264.941,0.156-280.361,0.205-283.281,1.025c-1.689,0.518-5.273,2.002-7.939,3.33   c-4.15,2.051-5.635,3.174-10.039,7.578c-4.658,4.619-5.43,5.693-7.783,10.508c-3.232,6.66-3.994,10.342-4.717,23.564   c-0.869,16.65-3.945,71.562-6.406,115c-1.279,22.539-4.863,86.162-7.939,141.387c-3.066,55.225-6.66,118.945-7.939,141.641   s-3.018,53.477-3.838,68.389c-0.869,14.951-2.1,37.549-2.822,50.195c-0.713,12.705-1.738,30.996-2.305,40.732   c-0.557,9.727-3.535,63.105-6.66,118.584c-3.125,55.527-5.986,106.758-6.396,113.926c-0.41,7.119-0.771,14.248-0.771,15.732v2.764   h361.143H859.15V19883.963z"/>
	<path fill="#FFFFFF" d="M341.348,19775.613c-5.117-1.279-9.629-5.635-11.113-10.703c-0.664-2.402-0.771-36.211-0.664-302.598   l0.156-299.922l1.221-2.51c3.594-7.334,12.197-10.811,19.678-7.998c3.994,1.484,7.529,5.02,8.965,8.867l1.123,2.969v299.57   c0,266.689-0.098,299.834-0.762,302.188c-1.025,3.379-4.971,7.783-8.301,9.219   C348.32,19776.082,344.629,19776.434,341.348,19775.613z"/>
	<path fill="#FFFFFF" d="M498.516,19775.877c-4.922-0.977-9.277-4.512-11.475-9.229l-1.074-2.354v-300.693v-300.703l1.328-2.871   c1.592-3.379,4.307-6.143,7.578-7.734c3.594-1.787,9.531-1.689,13.477,0.254c3.125,1.543,5.381,3.799,7.168,7.178l1.182,2.148   l0.156,300.439c0.098,266.689,0,300.703-0.664,303.115c-1.025,3.428-4.922,7.832-8.301,9.268   C505.019,19775.877,501.074,19776.385,498.516,19775.877z"/>
	<path fill="#FFFFFF" d="M644.15,19775.818c-5.127-1.074-10.244-5.576-11.68-10.391c-0.664-2.305-0.771-36.475-0.771-302.139   v-299.57l1.074-2.92c1.338-3.486,4.619-6.963,8.047-8.555c3.486-1.592,9.678-1.592,13.008,0.049   c3.125,1.543,5.996,4.404,7.588,7.529l1.279,2.568v300.947v300.957l-1.074,2.354   C658.496,19773.416,651.172,19777.254,644.15,19775.818z"/>
</g>
</svg>