<?xml version="1.0" encoding="utf-8"?>
<!-- Generator: Adobe Illustrator 15.1.0, SVG Export Plug-In . SVG Version: 6.00 Build 0)  -->
<!DOCTYPE svg PUBLIC "-//W3C//DTD SVG 1.1//EN" "http://www.w3.org/Graphics/SVG/1.1/DTD/svg11.dtd">
<svg version="1.1" id="Your_Icon" xmlns="http://www.w3.org/2000/svg" xmlns:xlink="http://www.w3.org/1999/xlink" x="0px" y="0px"
	 width="100px" height="100px" viewBox="0 0 100 100" enable-background="new 0 0 100 100" xml:space="preserve">
<path d="M30.5,19l11,10H94v52H6V19h24 M30.5,16h-24C4.843,16,3,16.843,3,18.5v62C3,82.157,4.843,84,6.5,84h88
	c1.657,0,2.5-1.843,2.5-3.5v-52c0-1.657-0.843-2.5-2.5-2.5H42.66l-10.142-9.22C31.966,16.278,31.246,16,30.5,16L30.5,16z"/>
<rect x="41.895" y="28.909" width="4.504" height="4.504"/>
<rect x="46.398" y="33.414" width="4.505" height="4.504"/>
<rect x="41.895" y="37.918" width="4.504" height="4.504"/>
<rect x="46.398" y="42.422" width="4.505" height="4.505"/>
<rect x="41.895" y="46.927" width="4.504" height="4.505"/>
<rect x="46.398" y="51.432" width="4.505" height="4.504"/>
<rect x="41.895" y="55.936" width="4.504" height="4.505"/>
<rect x="46.398" y="60.44" width="4.505" height="4.505"/>
<g>
	<g>
		<path d="M49.133,64.945h-5.362l-1.877,10.811c0,0,0.766,3.596,4.504,3.596c3.739,0,4.504-3.596,4.504-3.596L49.133,64.945z
			 M46.398,76.657c-0.995,0-1.802-1.21-1.802-2.702c0-1.493,0.807-2.703,1.802-2.703s1.802,1.21,1.802,2.703
			C48.2,75.447,47.393,76.657,46.398,76.657z"/>
	</g>
</g>
</svg>
