<svg version="1.1" xmlns="http://www.w3.org/2000/svg" xmlns:xlink="http://www.w3.org/1999/xlink" x="0px" y="0px"
	 width="100.001px" height="59.415px" viewBox="0 0 100.001 59.415" enable-background="new 0 0 100.001 59.415"
	 xml:space="preserve" fill="#FFFFFF">
    <g>
        <path d="M76.545,4.637c0,0-1.534,1.695-6.781,0.808L49.987,1.816c0,0-2.588-0.148-5.091,0.982l-10.98,3.839
            c0,0-5.886,4.581-10.891,9.908c0,0-1.691,3.428,4.686,3.025c0,0,7.345-1.938,9.847-5.166c0,0,7.059-2.775,9.04-2.099l27.204,18.242
            c0,0,4.924,4.844,5.325,6.62c0,0,4.842-4.36,6.618-6.297l4.601-2.26C90.347,28.609,82.438,6.251,76.545,4.637z"/>
        <path d="M14.961,38.884c0,0-2.018,5.085,0.888,6.618c0,0,2.018,1.453,4.681-0.16l0.969-1.696
            C21.5,43.646,16.333,39.125,14.961,38.884z"/>
        <path d="M27.14,50.017l1.645-3.866c0,0,0.643-3.185-2.503-4.093c0,0-2.717-0.911-3.146,0.529L21.06,46
            c0,0-0.5,2.349,0.072,3.108c0,0,1.216,2.046,2.502,2.274C23.635,51.383,25.852,51.913,27.14,50.017z"/>
        <path d="M34.203,53.384l1.654-3.939c0,0,0.647-3.244-2.517-4.169c0,0-2.733-0.929-3.164,0.539L28.09,49.29
            c0,0-0.503,2.395,0.071,3.166c0,0,1.223,2.084,2.517,2.318C30.678,54.774,32.908,55.313,34.203,53.384z"/>
        <path d="M44.393,58.042c0,0-3.479-2.589-3.787-3.105c0,0-1.856-3.104-4.098-2.144c0,0-3.247,1.109-1.933,3.771
            l3.093,2.661C37.667,59.226,39.523,60.112,44.393,58.042z"/>
    </g>
    <path d="M19.936,9.487c0,0,3.187,1.243,4.197,1.165l3.471,0.288c0,0-2.517,2.43-2.905,2.664l-3.068,3.067
        c0,0-0.58,3.508,3.306,4.129c0,0,4.663,0.466,12.046-4.974c0,0,4.472-1.897,6.527-2.254l2.637,0.231l26.663,17.799
        c0,0,4.895,4.43,5.128,6.683c0,0,1.319,3.731-1.787,6.14c0,0-1.323,2.021-5.206-0.232l-12.281-8.549c0,0,8.784,6.451,9.249,10.182
        c0,0,0.698,1.554-0.933,4.662c0,0-1.476,2.718-5.675,1.787l-8.391-7.46l-0.609,0.208c0,0,7.778,7.733,7.855,8.123
        c0,0,1.848,4.257-5.38,3.635l-7.385-5.673l-2.875-1.243l-0.388,0.234c0,0,3.678,2.073,8.263,6.349c0,0-0.179,2.744-5.543,2.122
        l-5.906-4.197c0,0-0.962-3.541-4.382-3.075c0,0,2.355-4.834-1.453-6.7c0,0-2.792-1.337-4.967-0.017c0,0-0.155-3.809-3.73-4.195
        c0,0-3.264-0.778-4.042,2.252l-8.893-6.596C13.479,36.042,18.848,8.166,19.936,9.487z"/>
    <path d="M18.205,8.154c0,0-6.58,23.421-6.337,27.941L0,34.024L8.878,5.093L18.205,8.154z"/>
    <path d="M77.56,3.794c0,0,4.924,2.018,9.446,12.43c0,0,4.924,12.188,4.924,13.48l8.071-2.422
        c0,0-7.023-21.067-13.965-27.282L77.56,3.794z"/>
</svg>
