<svg version="1.1" xmlns="http://www.w3.org/2000/svg" xmlns:xlink="http://www.w3.org/1999/xlink" x="0px" y="0px"
	 width="100px" height="100px" viewBox="0 0 100 100" enable-background="new 0 0 100 100" xml:space="preserve">
	<g>
		<g>
			<g>
				<g>
					<g>
						<g>
							<g>
								<path fill="#333333" d="M67.038,22.657H63.46V17.97h-27v4.687h-3.57V14h34.149L67.038,22.657L67.038,22.657z"/>
							</g>
						</g>
					</g>
				</g>
			</g>
		</g>
		<g>
			<path fill="#333333" d="M93.791,25.198H6.127c-3.304,0-5.983,2.68-5.983,5.982v48.623c0,3.301,2.679,5.98,5.983,5.98h87.664
				c3.309,0,5.984-2.682,5.984-5.98V31.18C99.775,27.877,97.1,25.198,93.791,25.198z M96.496,64.835
				c-0.83,1.879-3.016,4.06-5.604,4.06H9.028c-2.589,0-4.774-2.181-5.607-4.061c1.529,1.01,3.61,1.65,5.46,1.65h82.156
				C92.891,66.484,94.971,65.844,96.496,64.835z M59.578,61.489H40.349v-5.53h19.229V61.489z"/>
		</g>
	</g>
</svg>