<svg xmlns="http://www.w3.org/2000/svg" xmlns:xlink="http://www.w3.org/1999/xlink" version="1.1" id="Your_Icon" x="0px" y="0px" width="100px" height="100px" viewBox="0 0 100 100" enable-background="new 0 0 100 100" xml:space="preserve">
<path fill="#FFFFFF" d="M92.092,58.906C89.264,56.078,85.688,54.465,82,54.04V26.806C82,25.149,80.657,24,79,24H36.502l-8.203-7.364  C27.746,16.128,27.023,16,26.272,16H6.5C4.843,16,3,16.843,3,18.5V70c0,1.657,1.843,3,3.5,3h56.637  c0.439,3.657,2.047,7.201,4.854,10.009c6.656,6.655,17.447,6.655,24.104,0S98.748,65.563,92.092,58.906z M6,70V19h20h0.272l9.063,8  H79v26.965c-4.008,0.244-7.946,1.88-11.009,4.941c-3.084,3.084-4.72,7.057-4.946,11.094H6z M91.881,73H82v10.047  c0,0.828-0.672,1.5-1.5,1.5c-0.829,0-1.5-0.672-1.5-1.5V73H68.611c-0.828,0-1.5-0.672-1.5-1.5s0.671-1.5,1.5-1.5H79V59.779  c0-0.828,0.672-1.5,1.5-1.5s1.5,0.672,1.5,1.5V70h9.881c0.828,0,1.5,0.672,1.5,1.5S92.709,73,91.881,73z"/>
</svg>