<svg xmlns="http://www.w3.org/2000/svg" xmlns:xlink="http://www.w3.org/1999/xlink" version="1.1" id="Layer_1" x="0px" y="0px" width="100px" height="100px" viewBox="0 0 100 100" enable-background="new 0 0 100 100" xml:space="preserve" fill="#3FA9F5">
<polygon points="48.909,53.252 77.557,53.252 78.063,49.351 49.414,49.351 "/>
<polygon points="88.832,33.244 83.693,33.225 83.189,37.123 84.932,37.13 84.932,49.351 81.604,49.351 81.1,53.252 88.832,53.252   "/>
<polygon points="20.17,49.351 20.17,31.747 34.357,31.747 34.17,36.938 47.473,36.988 47.978,33.089 38.212,33.052 38.399,27.846   16.269,27.846 16.269,53.252 45.364,53.252 45.87,49.351 "/>
<polygon points="77.021,57.366 48.849,53.715 48.909,53.252 45.364,53.252 44.911,56.745 80.055,61.302 81.1,53.252 77.557,53.252   "/>
<path d="M80.055,61.302l-35.144-4.557l5.665-43.696l35.145,4.556L80.055,61.302z M48.849,53.715l28.174,3.651l4.762-36.728  l-28.176-3.652L48.849,53.715z"/>
<path d="M54.165,32.915c-0.054,0.434,0.251,0.832,0.692,0.889c0.435,0.057,0.838-0.25,0.892-0.684  c0.062-0.434-0.251-0.834-0.688-0.892C54.622,32.171,54.223,32.48,54.165,32.915z"/>
<ellipse transform="matrix(-0.1281 0.9918 -0.9918 -0.1281 100.1337 -20.882)" cx="59.246" cy="33.575" rx="0.793" ry="0.802"/>
<path d="M62.736,34.025c-0.055,0.434,0.25,0.834,0.693,0.892c0.434,0.057,0.838-0.251,0.896-0.686  c0.057-0.434-0.257-0.832-0.688-0.89C63.193,33.284,62.793,33.591,62.736,34.025z"/>
<path d="M67.025,34.581c-0.058,0.434,0.252,0.834,0.692,0.892c0.435,0.055,0.839-0.251,0.892-0.686  c0.059-0.434-0.25-0.834-0.688-0.889C67.482,33.84,67.079,34.147,67.025,34.581z"/>
<path d="M71.313,35.137c-0.058,0.435,0.254,0.834,0.688,0.89c0.442,0.057,0.842-0.25,0.899-0.684  c0.053-0.434-0.256-0.834-0.693-0.891C71.77,34.395,71.369,34.703,71.313,35.137z"/>
<path d="M75.598,35.693c-0.054,0.435,0.252,0.833,0.693,0.89c0.438,0.057,0.838-0.25,0.891-0.684  c0.063-0.437-0.25-0.834-0.688-0.892C76.055,34.951,75.658,35.259,75.598,35.693z"/>
<path d="M53.502,38.038c-0.059,0.437,0.251,0.834,0.689,0.892c0.438,0.058,0.842-0.25,0.896-0.686  c0.058-0.435-0.252-0.833-0.692-0.89C53.959,37.297,53.555,37.604,53.502,38.038z"/>
<path d="M57.784,38.594c-0.054,0.438,0.255,0.834,0.692,0.892c0.441,0.055,0.838-0.25,0.898-0.686  c0.055-0.435-0.251-0.834-0.693-0.89C58.245,37.854,57.846,38.16,57.784,38.594z"/>
<path d="M62.073,39.151c-0.058,0.436,0.252,0.832,0.692,0.889c0.436,0.057,0.838-0.248,0.896-0.684  c0.057-0.435-0.256-0.834-0.689-0.892C62.529,38.408,62.127,38.716,62.073,39.151z"/>
<path d="M66.363,39.707c-0.063,0.436,0.25,0.832,0.688,0.889c0.438,0.057,0.839-0.248,0.896-0.684  c0.054-0.436-0.252-0.834-0.693-0.892C66.82,38.964,66.416,39.271,66.363,39.707z"/>
<path d="M70.645,40.261c-0.053,0.436,0.256,0.834,0.693,0.891c0.438,0.058,0.839-0.248,0.898-0.686  c0.055-0.434-0.258-0.833-0.692-0.89C71.102,39.52,70.706,39.827,70.645,40.261z"/>
<path d="M74.936,40.817c-0.059,0.436,0.25,0.834,0.688,0.892s0.838-0.25,0.896-0.686c0.058-0.434-0.252-0.834-0.692-0.89  C75.393,40.076,74.991,40.383,74.936,40.817z"/>
<path d="M54.827,27.794c-0.054,0.436,0.252,0.834,0.692,0.891c0.438,0.057,0.84-0.25,0.896-0.686  c0.059-0.434-0.255-0.833-0.689-0.89C55.285,27.053,54.885,27.36,54.827,27.794z"/>
<path d="M59.117,28.351c-0.061,0.436,0.251,0.834,0.693,0.892c0.435,0.055,0.834-0.25,0.892-0.686  c0.053-0.434-0.252-0.834-0.688-0.89C59.574,27.609,59.171,27.916,59.117,28.351z"/>
<path d="M63.398,28.907c-0.053,0.436,0.256,0.833,0.693,0.89c0.438,0.057,0.838-0.248,0.898-0.684  c0.054-0.434-0.26-0.834-0.693-0.891C63.855,28.164,63.456,28.473,63.398,28.907z"/>
<path d="M67.688,29.463c-0.057,0.436,0.252,0.833,0.693,0.89c0.436,0.057,0.838-0.248,0.893-0.684  c0.061-0.434-0.252-0.834-0.689-0.891C68.146,28.721,67.746,29.029,67.688,29.463z"/>
<path d="M76.26,30.573c-0.053,0.437,0.252,0.834,0.693,0.892c0.438,0.057,0.839-0.25,0.893-0.686  c0.062-0.435-0.248-0.834-0.687-0.89C76.718,29.833,76.32,30.139,76.26,30.573z"/>
<path d="M55.49,22.676c-0.053,0.436,0.256,0.833,0.693,0.89s0.838-0.248,0.896-0.684c0.058-0.432-0.255-0.834-0.688-0.892  C55.947,21.933,55.548,22.244,55.49,22.676z"/>
<path d="M59.779,23.23c-0.062,0.438,0.252,0.834,0.693,0.892c0.435,0.057,0.834-0.248,0.893-0.686  c0.057-0.432-0.252-0.832-0.69-0.889C60.236,22.489,59.833,22.798,59.779,23.23z"/>
<path d="M64.063,23.787c-0.054,0.436,0.256,0.834,0.692,0.892c0.438,0.057,0.843-0.25,0.899-0.686  c0.054-0.432-0.256-0.832-0.693-0.889C64.52,23.046,64.123,23.354,64.063,23.787z"/>
<path d="M68.352,24.343c-0.054,0.436,0.252,0.834,0.693,0.892c0.436,0.055,0.838-0.25,0.896-0.686  c0.057-0.432-0.256-0.834-0.689-0.889C68.809,23.602,68.408,23.911,68.352,24.343z"/>
<path d="M76.927,25.455c-0.057,0.437,0.253,0.833,0.689,0.89c0.442,0.057,0.838-0.248,0.896-0.684  c0.057-0.435-0.252-0.834-0.688-0.892C77.38,24.712,76.984,25.023,76.927,25.455z"/>
<path d="M72.458,33.747c-3.367-0.436-5.752-3.531-5.313-6.901c0.438-3.366,3.531-5.747,6.898-5.311  c3.368,0.436,5.749,3.528,5.311,6.896C78.919,31.798,75.826,34.183,72.458,33.747z M73.594,25.021  c-1.447-0.188-2.777,0.833-2.964,2.278c-0.19,1.447,0.834,2.775,2.281,2.963c1.444,0.187,2.771-0.836,2.961-2.286  C76.055,26.533,75.033,25.208,73.594,25.021z"/>
<polygon points="72.352,55.343 51.197,52.6 59.292,35.23 62.378,49.32 67.498,43.511 "/>
<polygon points="82.98,84.41 18.219,84.41 6.517,51.302 94.684,51.302 "/>
<path d="M84.359,86.359H16.84L3.758,49.351h93.684L84.359,86.359z M19.599,82.46h62.002l10.323-29.208H9.274L19.599,82.46z"/>
</svg>